<?xml version="1.0" encoding="UTF-8" standalone="no"?>
<!-- Generator: Adobe Illustrator 12.0.0, SVG Export Plug-In . SVG Version: 6.00 Build 51448)  -->

<svg
   xmlns:dc="http://purl.org/dc/elements/1.1/"
   xmlns:cc="http://creativecommons.org/ns#"
   xmlns:rdf="http://www.w3.org/1999/02/22-rdf-syntax-ns#"
   xmlns:svg="http://www.w3.org/2000/svg"
   xmlns="http://www.w3.org/2000/svg"
   xmlns:sodipodi="http://sodipodi.sourceforge.net/DTD/sodipodi-0.dtd"
   xmlns:inkscape="http://www.inkscape.org/namespaces/inkscape"
   version="1.1"
   id="Layer_1"
   width="162.63699"
   height="197.834"
   viewBox="0 0 162.63699 197.834"
   overflow="visible"
   enable-background="new 0 0 180 200"
   xml:space="preserve"
   inkscape:version="0.48.1 "
   sodipodi:docname="AJAX.svg"
   style="overflow:visible"><metadata
   id="metadata29"><rdf:RDF><cc:Work
       rdf:about=""><dc:format>image/svg+xml</dc:format><dc:type
         rdf:resource="http://purl.org/dc/dcmitype/StillImage" /></cc:Work></rdf:RDF></metadata><defs
   id="defs27" /><sodipodi:namedview
   pagecolor="#ffffff"
   bordercolor="#666666"
   borderopacity="1"
   objecttolerance="10"
   gridtolerance="10"
   guidetolerance="10"
   inkscape:pageopacity="0"
   inkscape:pageshadow="2"
   inkscape:window-width="1280"
   inkscape:window-height="1004"
   id="namedview25"
   showgrid="false"
   fit-margin-top="0"
   fit-margin-left="0"
   fit-margin-right="0"
   fit-margin-bottom="0"
   inkscape:zoom="1.8692616"
   inkscape:cx="203.86874"
   inkscape:cy="55.167877"
   inkscape:window-x="-8"
   inkscape:window-y="-8"
   inkscape:window-maximized="1"
   inkscape:current-layer="Layer_1" />
<polygon
   points="26.146,192.686 26.146,175.617 28.79,175.617 28.79,199.111 28.427,199.111 13.187,181.301 13.187,198.378 10.559,198.378 10.559,174.865 10.906,174.865 "
   id="polygon3"
   transform="translate(-9.0080019,-1.488)" />
<polygon
   points="36.178,175.617 48.68,175.617 48.68,177.902 38.814,177.902 38.814,185.322 47.332,185.322 47.332,187.646 38.814,187.646 38.814,195.932 48.818,195.932 48.818,198.37 36.178,198.37 "
   id="polygon5"
   transform="translate(-9.0080019,-1.488)" />
<polygon
   points="71.078,178.07 63.044,178.07 63.044,198.387 60.315,198.387 60.315,178.07 52.27,178.07 52.27,175.617 71.078,175.617 "
   id="polygon7"
   transform="translate(-9.0080019,-1.488)" />
<polygon
   points="81.009,199.322 80.662,199.322 72.741,175.617 75.595,175.617 80.953,192.557 86.903,174.865 87.186,174.865 92.745,192.557 98.09,175.617 100.754,175.617 92.745,199.322 92.422,199.322 86.927,181.697 "
   id="polygon9"
   transform="translate(-9.0080019,-1.488)" />
<path
   d="m 97.857998,176.834 c 2.083,-2.237 4.917002,-3.456 7.872002,-3.456 2.939,0 5.748,1.219 7.871,3.495 2.117,2.277 3.287,5.266 3.287,8.632 0,2.834 -0.774,5.354 -2.293,7.452 -2.131,2.972 -5.426,4.666 -8.865,4.666 -2.924,0 -5.789002,-1.258 -7.872002,-3.471 -2.164,-2.293 -3.304,-5.231 -3.304,-8.647 10e-4,-3.397 1.14,-6.352 3.304,-8.671 M 105.73,195.13 c 4.684,0 8.381,-4.029 8.381,-9.625 0,-5.587 -3.697,-9.616 -8.381,-9.616 -4.699,0 -8.430002,4.063 -8.430002,9.616 0.003,5.53 3.731002,9.625 8.430002,9.625"
   id="path11"
   inkscape:connector-curvature="0" />
<path
   d="m 122.573,174.129 h 4.813 c 6.522,0 9.744,2.422 9.744,6.611 0,3.215 -2.261,5.83 -5.951,6.437 l 8.27,9.705 h -3.407 l -7.944,-9.366 h -2.858 v 9.366 h -2.664 v -22.753 m 4.971,11.321 c 4.586,0 6.871,-1.68 6.871,-4.635 0,-3.246 -2.455,-4.465 -7.308,-4.465 h -1.873 v 9.1 h 2.31 z"
   id="path13"
   inkscape:connector-curvature="0" />
<polygon
   points="155.836,175.617 155.836,186.582 166.703,175.617 170.191,175.617 159.34,186.533 171.645,198.37 167.898,198.37 155.836,186.938 155.836,198.37 153.188,198.37 153.188,175.617 "
   id="polygon15"
   transform="translate(-9.0080019,-1.488)" />
<path
   d="m 162.523,81.233 c 0,44.904 -36.397,81.269 -81.257002,81.269 C 36.390998,162.502 -1.8546304e-6,126.138 -1.8546304e-6,81.233 -1.8546304e-6,36.361 36.389998,2.0625436e-8 81.265998,2.0625436e-8 126.126,-9.9997937e-4 162.523,36.361 162.523,81.233"
   id="path17"
   inkscape:connector-curvature="0"
   style="fill:#ff7f00" />
<path
   d="m 81.273998,78.124 c 5.659,13.544 18.974002,46.027 18.974002,46.027 L 130.324,52.343 H 115.258 L 100.24,88.269 81.273998,42.251 l -18.958,46.018 -15.03,-35.926 h -15.058 l 30.088,71.808 c 0,0 13.318,-32.482 18.958,-46.027"
   id="path19"
   inkscape:connector-curvature="0"
   style="fill:#ffffff" />


</svg>